<?xml version="1.0" encoding="UTF-8" standalone="no"?>
<!DOCTYPE svg PUBLIC "-//W3C//DTD SVG 1.1//EN"
 "http://www.w3.org/Graphics/SVG/1.1/DTD/svg11.dtd">
<!-- Generated by graphviz version 9.0.0 (20230911.1827)
 -->
<!-- Pages: 1 -->
<svg width="1770pt" height="436pt"
 viewBox="0.00 0.00 1770.21 436.28" xmlns="http://www.w3.org/2000/svg" xmlns:xlink="http://www.w3.org/1999/xlink">
<g id="graph0" class="graph" transform="scale(1 1) rotate(0) translate(4 432.28)">
<polygon fill="white" stroke="none" points="-4,4 -4,-432.28 1766.21,-432.28 1766.21,4 -4,4"/>
<!-- 5978823819242510818 -->
<g id="node1" class="node">
<title>5978823819242510818</title>
<ellipse fill="none" stroke="black" cx="80.11" cy="-44.03" rx="44.03" ry="44.03"/>
<text text-anchor="middle" x="80.11" y="-38.23" font-family="Helvetica,sans-Serif" font-size="14.00">read&#45;csv</text>
</g>
<!-- 5994421954963395744 -->
<g id="node2" class="node">
<title>5994421954963395744</title>
<polygon fill="none" stroke="black" points="107.11,-160.07 53.11,-160.07 53.11,-124.07 107.11,-124.07 107.11,-160.07"/>
<text text-anchor="middle" x="80.11" y="-136.27" font-family="Helvetica,sans-Serif" font-size="14.00">0</text>
</g>
<!-- 5978823819242510818&#45;&gt;5994421954963395744 -->
<g id="edge1" class="edge">
<title>5978823819242510818&#45;&gt;5994421954963395744</title>
<path fill="none" stroke="black" d="M80.11,-88.55C80.11,-96.66 80.11,-104.95 80.11,-112.46"/>
<polygon fill="black" stroke="black" points="76.61,-112.36 80.11,-122.36 83.61,-112.36 76.61,-112.36"/>
</g>
<!-- &#45;4067968202281889255 -->
<g id="node21" class="node">
<title>&#45;4067968202281889255</title>
<ellipse fill="none" stroke="black" cx="80.11" cy="-276.17" rx="80.11" ry="80.11"/>
<text text-anchor="middle" x="80.11" y="-270.37" font-family="Helvetica,sans-Serif" font-size="14.00">to_pyarrow_string</text>
</g>
<!-- 5994421954963395744&#45;&gt;&#45;4067968202281889255 -->
<g id="edge12" class="edge">
<title>5994421954963395744&#45;&gt;&#45;4067968202281889255</title>
<path fill="none" stroke="black" d="M80.11,-160.34C80.11,-167.1 80.11,-175.4 80.11,-184.42"/>
<polygon fill="black" stroke="black" points="76.61,-184.22 80.11,-194.22 83.61,-184.22 76.61,-184.22"/>
</g>
<!-- &#45;5383198043895348223 -->
<g id="node3" class="node">
<title>&#45;5383198043895348223</title>
<ellipse fill="none" stroke="black" cx="258.11" cy="-44.03" rx="44.03" ry="44.03"/>
<text text-anchor="middle" x="258.11" y="-38.23" font-family="Helvetica,sans-Serif" font-size="14.00">read&#45;csv</text>
</g>
<!-- &#45;5944681362644157447 -->
<g id="node4" class="node">
<title>&#45;5944681362644157447</title>
<polygon fill="none" stroke="black" points="285.11,-160.07 231.11,-160.07 231.11,-124.07 285.11,-124.07 285.11,-160.07"/>
<text text-anchor="middle" x="258.11" y="-136.27" font-family="Helvetica,sans-Serif" font-size="14.00">1</text>
</g>
<!-- &#45;5383198043895348223&#45;&gt;&#45;5944681362644157447 -->
<g id="edge2" class="edge">
<title>&#45;5383198043895348223&#45;&gt;&#45;5944681362644157447</title>
<path fill="none" stroke="black" d="M258.11,-88.55C258.11,-96.66 258.11,-104.95 258.11,-112.46"/>
<polygon fill="black" stroke="black" points="254.61,-112.36 258.11,-122.36 261.61,-112.36 254.61,-112.36"/>
</g>
<!-- 171350970157003353 -->
<g id="node23" class="node">
<title>171350970157003353</title>
<ellipse fill="none" stroke="black" cx="258.11" cy="-276.17" rx="80.11" ry="80.11"/>
<text text-anchor="middle" x="258.11" y="-270.37" font-family="Helvetica,sans-Serif" font-size="14.00">to_pyarrow_string</text>
</g>
<!-- &#45;5944681362644157447&#45;&gt;171350970157003353 -->
<g id="edge14" class="edge">
<title>&#45;5944681362644157447&#45;&gt;171350970157003353</title>
<path fill="none" stroke="black" d="M258.11,-160.34C258.11,-167.1 258.11,-175.4 258.11,-184.42"/>
<polygon fill="black" stroke="black" points="254.61,-184.22 258.11,-194.22 261.61,-184.22 254.61,-184.22"/>
</g>
<!-- &#45;5542236254440823743 -->
<g id="node5" class="node">
<title>&#45;5542236254440823743</title>
<ellipse fill="none" stroke="black" cx="436.11" cy="-44.03" rx="44.03" ry="44.03"/>
<text text-anchor="middle" x="436.11" y="-38.23" font-family="Helvetica,sans-Serif" font-size="14.00">read&#45;csv</text>
</g>
<!-- 7608988682092697803 -->
<g id="node6" class="node">
<title>7608988682092697803</title>
<polygon fill="none" stroke="black" points="463.11,-160.07 409.11,-160.07 409.11,-124.07 463.11,-124.07 463.11,-160.07"/>
<text text-anchor="middle" x="436.11" y="-136.27" font-family="Helvetica,sans-Serif" font-size="14.00">2</text>
</g>
<!-- &#45;5542236254440823743&#45;&gt;7608988682092697803 -->
<g id="edge3" class="edge">
<title>&#45;5542236254440823743&#45;&gt;7608988682092697803</title>
<path fill="none" stroke="black" d="M436.11,-88.55C436.11,-96.66 436.11,-104.95 436.11,-112.46"/>
<polygon fill="black" stroke="black" points="432.61,-112.36 436.11,-122.36 439.61,-112.36 432.61,-112.36"/>
</g>
<!-- &#45;632775934991569689 -->
<g id="node25" class="node">
<title>&#45;632775934991569689</title>
<ellipse fill="none" stroke="black" cx="436.11" cy="-276.17" rx="80.11" ry="80.11"/>
<text text-anchor="middle" x="436.11" y="-270.37" font-family="Helvetica,sans-Serif" font-size="14.00">to_pyarrow_string</text>
</g>
<!-- 7608988682092697803&#45;&gt;&#45;632775934991569689 -->
<g id="edge16" class="edge">
<title>7608988682092697803&#45;&gt;&#45;632775934991569689</title>
<path fill="none" stroke="black" d="M436.11,-160.34C436.11,-167.1 436.11,-175.4 436.11,-184.42"/>
<polygon fill="black" stroke="black" points="432.61,-184.22 436.11,-194.22 439.61,-184.22 432.61,-184.22"/>
</g>
<!-- &#45;7224164361316241908 -->
<g id="node7" class="node">
<title>&#45;7224164361316241908</title>
<ellipse fill="none" stroke="black" cx="614.11" cy="-44.03" rx="44.03" ry="44.03"/>
<text text-anchor="middle" x="614.11" y="-38.23" font-family="Helvetica,sans-Serif" font-size="14.00">read&#45;csv</text>
</g>
<!-- &#45;8728472018499223516 -->
<g id="node8" class="node">
<title>&#45;8728472018499223516</title>
<polygon fill="none" stroke="black" points="641.11,-160.07 587.11,-160.07 587.11,-124.07 641.11,-124.07 641.11,-160.07"/>
<text text-anchor="middle" x="614.11" y="-136.27" font-family="Helvetica,sans-Serif" font-size="14.00">3</text>
</g>
<!-- &#45;7224164361316241908&#45;&gt;&#45;8728472018499223516 -->
<g id="edge4" class="edge">
<title>&#45;7224164361316241908&#45;&gt;&#45;8728472018499223516</title>
<path fill="none" stroke="black" d="M614.11,-88.55C614.11,-96.66 614.11,-104.95 614.11,-112.46"/>
<polygon fill="black" stroke="black" points="610.61,-112.36 614.11,-122.36 617.61,-112.36 610.61,-112.36"/>
</g>
<!-- &#45;791814145537045209 -->
<g id="node27" class="node">
<title>&#45;791814145537045209</title>
<ellipse fill="none" stroke="black" cx="614.11" cy="-276.17" rx="80.11" ry="80.11"/>
<text text-anchor="middle" x="614.11" y="-270.37" font-family="Helvetica,sans-Serif" font-size="14.00">to_pyarrow_string</text>
</g>
<!-- &#45;8728472018499223516&#45;&gt;&#45;791814145537045209 -->
<g id="edge18" class="edge">
<title>&#45;8728472018499223516&#45;&gt;&#45;791814145537045209</title>
<path fill="none" stroke="black" d="M614.11,-160.34C614.11,-167.1 614.11,-175.4 614.11,-184.42"/>
<polygon fill="black" stroke="black" points="610.61,-184.22 614.11,-194.22 617.61,-184.22 610.61,-184.22"/>
</g>
<!-- &#45;7383202571861717428 -->
<g id="node9" class="node">
<title>&#45;7383202571861717428</title>
<ellipse fill="none" stroke="black" cx="792.11" cy="-44.03" rx="44.03" ry="44.03"/>
<text text-anchor="middle" x="792.11" y="-38.23" font-family="Helvetica,sans-Serif" font-size="14.00">read&#45;csv</text>
</g>
<!-- 4825198026237631734 -->
<g id="node10" class="node">
<title>4825198026237631734</title>
<polygon fill="none" stroke="black" points="819.11,-160.07 765.11,-160.07 765.11,-124.07 819.11,-124.07 819.11,-160.07"/>
<text text-anchor="middle" x="792.11" y="-136.27" font-family="Helvetica,sans-Serif" font-size="14.00">4</text>
</g>
<!-- &#45;7383202571861717428&#45;&gt;4825198026237631734 -->
<g id="edge5" class="edge">
<title>&#45;7383202571861717428&#45;&gt;4825198026237631734</title>
<path fill="none" stroke="black" d="M792.11,-88.55C792.11,-96.66 792.11,-104.95 792.11,-112.46"/>
<polygon fill="black" stroke="black" points="788.61,-112.36 792.11,-122.36 795.61,-112.36 788.61,-112.36"/>
</g>
<!-- 5415106863307802243 -->
<g id="node29" class="node">
<title>5415106863307802243</title>
<ellipse fill="none" stroke="black" cx="792.11" cy="-276.17" rx="80.11" ry="80.11"/>
<text text-anchor="middle" x="792.11" y="-270.37" font-family="Helvetica,sans-Serif" font-size="14.00">to_pyarrow_string</text>
</g>
<!-- 4825198026237631734&#45;&gt;5415106863307802243 -->
<g id="edge20" class="edge">
<title>4825198026237631734&#45;&gt;5415106863307802243</title>
<path fill="none" stroke="black" d="M792.11,-160.34C792.11,-167.1 792.11,-175.4 792.11,-184.42"/>
<polygon fill="black" stroke="black" points="788.61,-184.22 792.11,-194.22 795.61,-184.22 788.61,-184.22"/>
</g>
<!-- 5432094836517797849 -->
<g id="node11" class="node">
<title>5432094836517797849</title>
<ellipse fill="none" stroke="black" cx="970.11" cy="-44.03" rx="44.03" ry="44.03"/>
<text text-anchor="middle" x="970.11" y="-38.23" font-family="Helvetica,sans-Serif" font-size="14.00">read&#45;csv</text>
</g>
<!-- &#45;7113905291369921457 -->
<g id="node12" class="node">
<title>&#45;7113905291369921457</title>
<polygon fill="none" stroke="black" points="997.11,-160.07 943.11,-160.07 943.11,-124.07 997.11,-124.07 997.11,-160.07"/>
<text text-anchor="middle" x="970.11" y="-136.27" font-family="Helvetica,sans-Serif" font-size="14.00">5</text>
</g>
<!-- 5432094836517797849&#45;&gt;&#45;7113905291369921457 -->
<g id="edge6" class="edge">
<title>5432094836517797849&#45;&gt;&#45;7113905291369921457</title>
<path fill="none" stroke="black" d="M970.11,-88.55C970.11,-96.66 970.11,-104.95 970.11,-112.46"/>
<polygon fill="black" stroke="black" points="966.61,-112.36 970.11,-122.36 973.61,-112.36 966.61,-112.36"/>
</g>
<!-- &#45;8792318037962856765 -->
<g id="node31" class="node">
<title>&#45;8792318037962856765</title>
<ellipse fill="none" stroke="black" cx="970.11" cy="-276.17" rx="80.11" ry="80.11"/>
<text text-anchor="middle" x="970.11" y="-270.37" font-family="Helvetica,sans-Serif" font-size="14.00">to_pyarrow_string</text>
</g>
<!-- &#45;7113905291369921457&#45;&gt;&#45;8792318037962856765 -->
<g id="edge22" class="edge">
<title>&#45;7113905291369921457&#45;&gt;&#45;8792318037962856765</title>
<path fill="none" stroke="black" d="M970.11,-160.34C970.11,-167.1 970.11,-175.4 970.11,-184.42"/>
<polygon fill="black" stroke="black" points="966.61,-184.22 970.11,-194.22 973.61,-184.22 966.61,-184.22"/>
</g>
<!-- &#45;2418061357265632018 -->
<g id="node13" class="node">
<title>&#45;2418061357265632018</title>
<ellipse fill="none" stroke="black" cx="1148.11" cy="-44.03" rx="44.03" ry="44.03"/>
<text text-anchor="middle" x="1148.11" y="-38.23" font-family="Helvetica,sans-Serif" font-size="14.00">read&#45;csv</text>
</g>
<!-- &#45;606264535267923032 -->
<g id="node14" class="node">
<title>&#45;606264535267923032</title>
<polygon fill="none" stroke="black" points="1175.11,-160.07 1121.11,-160.07 1121.11,-124.07 1175.11,-124.07 1175.11,-160.07"/>
<text text-anchor="middle" x="1148.11" y="-136.27" font-family="Helvetica,sans-Serif" font-size="14.00">6</text>
</g>
<!-- &#45;2418061357265632018&#45;&gt;&#45;606264535267923032 -->
<g id="edge7" class="edge">
<title>&#45;2418061357265632018&#45;&gt;&#45;606264535267923032</title>
<path fill="none" stroke="black" d="M1148.11,-88.55C1148.11,-96.66 1148.11,-104.95 1148.11,-112.46"/>
<polygon fill="black" stroke="black" points="1144.61,-112.36 1148.11,-122.36 1151.61,-112.36 1144.61,-112.36"/>
</g>
<!-- &#45;8264227128287975233 -->
<g id="node33" class="node">
<title>&#45;8264227128287975233</title>
<ellipse fill="none" stroke="black" cx="1148.11" cy="-276.17" rx="80.11" ry="80.11"/>
<text text-anchor="middle" x="1148.11" y="-270.37" font-family="Helvetica,sans-Serif" font-size="14.00">to_pyarrow_string</text>
</g>
<!-- &#45;606264535267923032&#45;&gt;&#45;8264227128287975233 -->
<g id="edge24" class="edge">
<title>&#45;606264535267923032&#45;&gt;&#45;8264227128287975233</title>
<path fill="none" stroke="black" d="M1148.11,-160.34C1148.11,-167.1 1148.11,-175.4 1148.11,-184.42"/>
<polygon fill="black" stroke="black" points="1144.61,-184.22 1148.11,-194.22 1151.61,-184.22 1144.61,-184.22"/>
</g>
<!-- &#45;3454900769537952661 -->
<g id="node15" class="node">
<title>&#45;3454900769537952661</title>
<ellipse fill="none" stroke="black" cx="1326.11" cy="-44.03" rx="44.03" ry="44.03"/>
<text text-anchor="middle" x="1326.11" y="-38.23" font-family="Helvetica,sans-Serif" font-size="14.00">read&#45;csv</text>
</g>
<!-- 8549048126484564090 -->
<g id="node16" class="node">
<title>8549048126484564090</title>
<polygon fill="none" stroke="black" points="1353.11,-160.07 1299.11,-160.07 1299.11,-124.07 1353.11,-124.07 1353.11,-160.07"/>
<text text-anchor="middle" x="1326.11" y="-136.27" font-family="Helvetica,sans-Serif" font-size="14.00">7</text>
</g>
<!-- &#45;3454900769537952661&#45;&gt;8549048126484564090 -->
<g id="edge8" class="edge">
<title>&#45;3454900769537952661&#45;&gt;8549048126484564090</title>
<path fill="none" stroke="black" d="M1326.11,-88.55C1326.11,-96.66 1326.11,-104.95 1326.11,-112.46"/>
<polygon fill="black" stroke="black" points="1322.61,-112.36 1326.11,-122.36 1329.61,-112.36 1322.61,-112.36"/>
</g>
<!-- &#45;8225534206351139483 -->
<g id="node35" class="node">
<title>&#45;8225534206351139483</title>
<ellipse fill="none" stroke="black" cx="1326.11" cy="-276.17" rx="80.11" ry="80.11"/>
<text text-anchor="middle" x="1326.11" y="-270.37" font-family="Helvetica,sans-Serif" font-size="14.00">to_pyarrow_string</text>
</g>
<!-- 8549048126484564090&#45;&gt;&#45;8225534206351139483 -->
<g id="edge26" class="edge">
<title>8549048126484564090&#45;&gt;&#45;8225534206351139483</title>
<path fill="none" stroke="black" d="M1326.11,-160.34C1326.11,-167.1 1326.11,-175.4 1326.11,-184.42"/>
<polygon fill="black" stroke="black" points="1322.61,-184.22 1326.11,-194.22 1329.61,-184.22 1322.61,-184.22"/>
</g>
<!-- 3629821441033739914 -->
<g id="node17" class="node">
<title>3629821441033739914</title>
<ellipse fill="none" stroke="black" cx="1504.11" cy="-44.03" rx="44.03" ry="44.03"/>
<text text-anchor="middle" x="1504.11" y="-38.23" font-family="Helvetica,sans-Serif" font-size="14.00">read&#45;csv</text>
</g>
<!-- &#45;3390055191122989101 -->
<g id="node18" class="node">
<title>&#45;3390055191122989101</title>
<polygon fill="none" stroke="black" points="1531.11,-160.07 1477.11,-160.07 1477.11,-124.07 1531.11,-124.07 1531.11,-160.07"/>
<text text-anchor="middle" x="1504.11" y="-136.27" font-family="Helvetica,sans-Serif" font-size="14.00">8</text>
</g>
<!-- 3629821441033739914&#45;&gt;&#45;3390055191122989101 -->
<g id="edge9" class="edge">
<title>3629821441033739914&#45;&gt;&#45;3390055191122989101</title>
<path fill="none" stroke="black" d="M1504.11,-88.55C1504.11,-96.66 1504.11,-104.95 1504.11,-112.46"/>
<polygon fill="black" stroke="black" points="1500.61,-112.36 1504.11,-122.36 1507.61,-112.36 1500.61,-112.36"/>
</g>
<!-- &#45;4864016235639091998 -->
<g id="node37" class="node">
<title>&#45;4864016235639091998</title>
<ellipse fill="none" stroke="black" cx="1504.11" cy="-276.17" rx="80.11" ry="80.11"/>
<text text-anchor="middle" x="1504.11" y="-270.37" font-family="Helvetica,sans-Serif" font-size="14.00">to_pyarrow_string</text>
</g>
<!-- &#45;3390055191122989101&#45;&gt;&#45;4864016235639091998 -->
<g id="edge28" class="edge">
<title>&#45;3390055191122989101&#45;&gt;&#45;4864016235639091998</title>
<path fill="none" stroke="black" d="M1504.11,-160.34C1504.11,-167.1 1504.11,-175.4 1504.11,-184.42"/>
<polygon fill="black" stroke="black" points="1500.61,-184.22 1504.11,-194.22 1507.61,-184.22 1500.61,-184.22"/>
</g>
<!-- 7869140613472632522 -->
<g id="node19" class="node">
<title>7869140613472632522</title>
<ellipse fill="none" stroke="black" cx="1682.11" cy="-44.03" rx="44.03" ry="44.03"/>
<text text-anchor="middle" x="1682.11" y="-38.23" font-family="Helvetica,sans-Serif" font-size="14.00">read&#45;csv</text>
</g>
<!-- &#45;8283129220095685467 -->
<g id="node20" class="node">
<title>&#45;8283129220095685467</title>
<polygon fill="none" stroke="black" points="1709.11,-160.07 1655.11,-160.07 1655.11,-124.07 1709.11,-124.07 1709.11,-160.07"/>
<text text-anchor="middle" x="1682.11" y="-136.27" font-family="Helvetica,sans-Serif" font-size="14.00">9</text>
</g>
<!-- 7869140613472632522&#45;&gt;&#45;8283129220095685467 -->
<g id="edge10" class="edge">
<title>7869140613472632522&#45;&gt;&#45;8283129220095685467</title>
<path fill="none" stroke="black" d="M1682.11,-88.55C1682.11,-96.66 1682.11,-104.95 1682.11,-112.46"/>
<polygon fill="black" stroke="black" points="1678.61,-112.36 1682.11,-122.36 1685.61,-112.36 1678.61,-112.36"/>
</g>
<!-- 8380243549937518448 -->
<g id="node39" class="node">
<title>8380243549937518448</title>
<ellipse fill="none" stroke="black" cx="1682.11" cy="-276.17" rx="80.11" ry="80.11"/>
<text text-anchor="middle" x="1682.11" y="-270.37" font-family="Helvetica,sans-Serif" font-size="14.00">to_pyarrow_string</text>
</g>
<!-- &#45;8283129220095685467&#45;&gt;8380243549937518448 -->
<g id="edge30" class="edge">
<title>&#45;8283129220095685467&#45;&gt;8380243549937518448</title>
<path fill="none" stroke="black" d="M1682.11,-160.34C1682.11,-167.1 1682.11,-175.4 1682.11,-184.42"/>
<polygon fill="black" stroke="black" points="1678.61,-184.22 1682.11,-194.22 1685.61,-184.22 1678.61,-184.22"/>
</g>
<!-- &#45;3954132327406732060 -->
<g id="node22" class="node">
<title>&#45;3954132327406732060</title>
<polygon fill="none" stroke="black" points="107.11,-428.28 53.11,-428.28 53.11,-392.28 107.11,-392.28 107.11,-428.28"/>
<text text-anchor="middle" x="80.11" y="-404.48" font-family="Helvetica,sans-Serif" font-size="14.00">0</text>
</g>
<!-- &#45;4067968202281889255&#45;&gt;&#45;3954132327406732060 -->
<g id="edge11" class="edge">
<title>&#45;4067968202281889255&#45;&gt;&#45;3954132327406732060</title>
<path fill="none" stroke="black" d="M80.11,-356.69C80.11,-365.23 80.11,-373.46 80.11,-380.77"/>
<polygon fill="black" stroke="black" points="76.61,-380.58 80.11,-390.58 83.61,-380.58 76.61,-380.58"/>
</g>
<!-- &#45;8847206356379428426 -->
<g id="node24" class="node">
<title>&#45;8847206356379428426</title>
<polygon fill="none" stroke="black" points="285.11,-428.28 231.11,-428.28 231.11,-392.28 285.11,-392.28 285.11,-428.28"/>
<text text-anchor="middle" x="258.11" y="-404.48" font-family="Helvetica,sans-Serif" font-size="14.00">1</text>
</g>
<!-- 171350970157003353&#45;&gt;&#45;8847206356379428426 -->
<g id="edge13" class="edge">
<title>171350970157003353&#45;&gt;&#45;8847206356379428426</title>
<path fill="none" stroke="black" d="M258.11,-356.69C258.11,-365.23 258.11,-373.46 258.11,-380.77"/>
<polygon fill="black" stroke="black" points="254.61,-380.58 258.11,-390.58 261.61,-380.58 254.61,-380.58"/>
</g>
<!-- &#45;2339565600277430001 -->
<g id="node26" class="node">
<title>&#45;2339565600277430001</title>
<polygon fill="none" stroke="black" points="463.11,-428.28 409.11,-428.28 409.11,-392.28 463.11,-392.28 463.11,-428.28"/>
<text text-anchor="middle" x="436.11" y="-404.48" font-family="Helvetica,sans-Serif" font-size="14.00">2</text>
</g>
<!-- &#45;632775934991569689&#45;&gt;&#45;2339565600277430001 -->
<g id="edge15" class="edge">
<title>&#45;632775934991569689&#45;&gt;&#45;2339565600277430001</title>
<path fill="none" stroke="black" d="M436.11,-356.69C436.11,-365.23 436.11,-373.46 436.11,-380.77"/>
<polygon fill="black" stroke="black" points="432.61,-380.58 436.11,-390.58 439.61,-380.58 432.61,-380.58"/>
</g>
<!-- &#45;7232639629250126367 -->
<g id="node28" class="node">
<title>&#45;7232639629250126367</title>
<polygon fill="none" stroke="black" points="641.11,-428.28 587.11,-428.28 587.11,-392.28 641.11,-392.28 641.11,-428.28"/>
<text text-anchor="middle" x="614.11" y="-404.48" font-family="Helvetica,sans-Serif" font-size="14.00">3</text>
</g>
<!-- &#45;791814145537045209&#45;&gt;&#45;7232639629250126367 -->
<g id="edge17" class="edge">
<title>&#45;791814145537045209&#45;&gt;&#45;7232639629250126367</title>
<path fill="none" stroke="black" d="M614.11,-356.69C614.11,-365.23 614.11,-373.46 614.11,-380.77"/>
<polygon fill="black" stroke="black" points="610.61,-380.58 614.11,-390.58 617.61,-380.58 610.61,-380.58"/>
</g>
<!-- &#45;5123356256132496070 -->
<g id="node30" class="node">
<title>&#45;5123356256132496070</title>
<polygon fill="none" stroke="black" points="819.11,-428.28 765.11,-428.28 765.11,-392.28 819.11,-392.28 819.11,-428.28"/>
<text text-anchor="middle" x="792.11" y="-404.48" font-family="Helvetica,sans-Serif" font-size="14.00">4</text>
</g>
<!-- 5415106863307802243&#45;&gt;&#45;5123356256132496070 -->
<g id="edge19" class="edge">
<title>5415106863307802243&#45;&gt;&#45;5123356256132496070</title>
<path fill="none" stroke="black" d="M792.11,-356.69C792.11,-365.23 792.11,-373.46 792.11,-380.77"/>
<polygon fill="black" stroke="black" points="788.61,-380.58 792.11,-390.58 795.61,-380.58 788.61,-380.58"/>
</g>
<!-- 8430313788604359180 -->
<g id="node32" class="node">
<title>8430313788604359180</title>
<polygon fill="none" stroke="black" points="997.11,-428.28 943.11,-428.28 943.11,-392.28 997.11,-392.28 997.11,-428.28"/>
<text text-anchor="middle" x="970.11" y="-404.48" font-family="Helvetica,sans-Serif" font-size="14.00">5</text>
</g>
<!-- &#45;8792318037962856765&#45;&gt;8430313788604359180 -->
<g id="edge21" class="edge">
<title>&#45;8792318037962856765&#45;&gt;8430313788604359180</title>
<path fill="none" stroke="black" d="M970.11,-356.69C970.11,-365.23 970.11,-373.46 970.11,-380.77"/>
<polygon fill="black" stroke="black" points="966.61,-380.58 970.11,-390.58 973.61,-380.58 966.61,-380.58"/>
</g>
<!-- &#45;3508789529003194011 -->
<g id="node34" class="node">
<title>&#45;3508789529003194011</title>
<polygon fill="none" stroke="black" points="1175.11,-428.28 1121.11,-428.28 1121.11,-392.28 1175.11,-392.28 1175.11,-428.28"/>
<text text-anchor="middle" x="1148.11" y="-404.48" font-family="Helvetica,sans-Serif" font-size="14.00">6</text>
</g>
<!-- &#45;8264227128287975233&#45;&gt;&#45;3508789529003194011 -->
<g id="edge23" class="edge">
<title>&#45;8264227128287975233&#45;&gt;&#45;3508789529003194011</title>
<path fill="none" stroke="black" d="M1148.11,-356.69C1148.11,-365.23 1148.11,-373.46 1148.11,-380.77"/>
<polygon fill="black" stroke="black" points="1144.61,-380.58 1148.11,-390.58 1151.61,-380.58 1144.61,-380.58"/>
</g>
<!-- 2998851227098804414 -->
<g id="node36" class="node">
<title>2998851227098804414</title>
<polygon fill="none" stroke="black" points="1353.11,-428.28 1299.11,-428.28 1299.11,-392.28 1353.11,-392.28 1353.11,-428.28"/>
<text text-anchor="middle" x="1326.11" y="-404.48" font-family="Helvetica,sans-Serif" font-size="14.00">7</text>
</g>
<!-- &#45;8225534206351139483&#45;&gt;2998851227098804414 -->
<g id="edge25" class="edge">
<title>&#45;8225534206351139483&#45;&gt;2998851227098804414</title>
<path fill="none" stroke="black" d="M1326.11,-356.69C1326.11,-365.23 1326.11,-373.46 1326.11,-380.77"/>
<polygon fill="black" stroke="black" points="1322.61,-380.58 1326.11,-390.58 1329.61,-380.58 1322.61,-380.58"/>
</g>
<!-- &#45;6292580184858260080 -->
<g id="node38" class="node">
<title>&#45;6292580184858260080</title>
<polygon fill="none" stroke="black" points="1531.11,-428.28 1477.11,-428.28 1477.11,-392.28 1531.11,-392.28 1531.11,-428.28"/>
<text text-anchor="middle" x="1504.11" y="-404.48" font-family="Helvetica,sans-Serif" font-size="14.00">8</text>
</g>
<!-- &#45;4864016235639091998&#45;&gt;&#45;6292580184858260080 -->
<g id="edge27" class="edge">
<title>&#45;4864016235639091998&#45;&gt;&#45;6292580184858260080</title>
<path fill="none" stroke="black" d="M1504.11,-356.69C1504.11,-365.23 1504.11,-373.46 1504.11,-380.77"/>
<polygon fill="black" stroke="black" points="1500.61,-380.58 1504.11,-390.58 1507.61,-380.58 1500.61,-380.58"/>
</g>
<!-- 215060571243738345 -->
<g id="node40" class="node">
<title>215060571243738345</title>
<polygon fill="none" stroke="black" points="1709.11,-428.28 1655.11,-428.28 1655.11,-392.28 1709.11,-392.28 1709.11,-428.28"/>
<text text-anchor="middle" x="1682.11" y="-404.48" font-family="Helvetica,sans-Serif" font-size="14.00">9</text>
</g>
<!-- 8380243549937518448&#45;&gt;215060571243738345 -->
<g id="edge29" class="edge">
<title>8380243549937518448&#45;&gt;215060571243738345</title>
<path fill="none" stroke="black" d="M1682.11,-356.69C1682.11,-365.23 1682.11,-373.46 1682.11,-380.77"/>
<polygon fill="black" stroke="black" points="1678.61,-380.58 1682.11,-390.58 1685.61,-380.58 1678.61,-380.58"/>
</g>
</g>
</svg>
