<?xml version="1.0" encoding="UTF-8" standalone="no"?>
<!DOCTYPE svg PUBLIC "-//W3C//DTD SVG 1.1//EN"
 "http://www.w3.org/Graphics/SVG/1.1/DTD/svg11.dtd">
<!-- Generated by graphviz version 10.0.1 (20240210.2158)
 -->
<!-- Pages: 1 -->
<svg width="1058pt" height="436pt"
 viewBox="0.00 0.00 1058.21 436.28" xmlns="http://www.w3.org/2000/svg" xmlns:xlink="http://www.w3.org/1999/xlink">
<g id="graph0" class="graph" transform="scale(1 1) rotate(0) translate(4 432.28)">
<polygon fill="white" stroke="none" points="-4,4 -4,-432.28 1054.21,-432.28 1054.21,4 -4,4"/>
<!-- &#45;246695847396450275 -->
<g id="node1" class="node">
<title>&#45;246695847396450275</title>
<ellipse fill="none" stroke="black" cx="80.11" cy="-44.03" rx="44.03" ry="44.03"/>
<text text-anchor="middle" x="80.11" y="-38.23" font-family="Helvetica,sans-Serif" font-size="14.00">read&#45;csv</text>
</g>
<!-- &#45;8108073862451504762 -->
<g id="node2" class="node">
<title>&#45;8108073862451504762</title>
<polygon fill="none" stroke="black" points="107.11,-160.07 53.11,-160.07 53.11,-124.07 107.11,-124.07 107.11,-160.07"/>
<text text-anchor="middle" x="80.11" y="-136.27" font-family="Helvetica,sans-Serif" font-size="14.00">0</text>
</g>
<!-- &#45;246695847396450275&#45;&gt;&#45;8108073862451504762 -->
<g id="edge1" class="edge">
<title>&#45;246695847396450275&#45;&gt;&#45;8108073862451504762</title>
<path fill="none" stroke="black" d="M80.11,-88.55C80.11,-96.66 80.11,-104.95 80.11,-112.46"/>
<polygon fill="black" stroke="black" points="76.61,-112.36 80.11,-122.36 83.61,-112.36 76.61,-112.36"/>
</g>
<!-- 4316723616085736 -->
<g id="node13" class="node">
<title>4316723616085736</title>
<ellipse fill="none" stroke="black" cx="80.11" cy="-276.17" rx="80.11" ry="80.11"/>
<text text-anchor="middle" x="80.11" y="-270.37" font-family="Helvetica,sans-Serif" font-size="14.00">to_pyarrow_string</text>
</g>
<!-- &#45;8108073862451504762&#45;&gt;4316723616085736 -->
<g id="edge8" class="edge">
<title>&#45;8108073862451504762&#45;&gt;4316723616085736</title>
<path fill="none" stroke="black" d="M80.11,-160.34C80.11,-167.1 80.11,-175.4 80.11,-184.42"/>
<polygon fill="black" stroke="black" points="76.61,-184.22 80.11,-194.22 83.61,-184.22 76.61,-184.22"/>
</g>
<!-- &#45;6326981337256236568 -->
<g id="node3" class="node">
<title>&#45;6326981337256236568</title>
<ellipse fill="none" stroke="black" cx="258.11" cy="-44.03" rx="44.03" ry="44.03"/>
<text text-anchor="middle" x="258.11" y="-38.23" font-family="Helvetica,sans-Serif" font-size="14.00">read&#45;csv</text>
</g>
<!-- &#45;5998790489333874465 -->
<g id="node4" class="node">
<title>&#45;5998790489333874465</title>
<polygon fill="none" stroke="black" points="285.11,-160.07 231.11,-160.07 231.11,-124.07 285.11,-124.07 285.11,-160.07"/>
<text text-anchor="middle" x="258.11" y="-136.27" font-family="Helvetica,sans-Serif" font-size="14.00">1</text>
</g>
<!-- &#45;6326981337256236568&#45;&gt;&#45;5998790489333874465 -->
<g id="edge2" class="edge">
<title>&#45;6326981337256236568&#45;&gt;&#45;5998790489333874465</title>
<path fill="none" stroke="black" d="M258.11,-88.55C258.11,-96.66 258.11,-104.95 258.11,-112.46"/>
<polygon fill="black" stroke="black" points="254.61,-112.36 258.11,-122.36 261.61,-112.36 254.61,-112.36"/>
</g>
<!-- 4243635896054978344 -->
<g id="node15" class="node">
<title>4243635896054978344</title>
<ellipse fill="none" stroke="black" cx="258.11" cy="-276.17" rx="80.11" ry="80.11"/>
<text text-anchor="middle" x="258.11" y="-270.37" font-family="Helvetica,sans-Serif" font-size="14.00">to_pyarrow_string</text>
</g>
<!-- &#45;5998790489333874465&#45;&gt;4243635896054978344 -->
<g id="edge10" class="edge">
<title>&#45;5998790489333874465&#45;&gt;4243635896054978344</title>
<path fill="none" stroke="black" d="M258.11,-160.34C258.11,-167.1 258.11,-175.4 258.11,-184.42"/>
<polygon fill="black" stroke="black" points="254.61,-184.22 258.11,-194.22 261.61,-184.22 254.61,-184.22"/>
</g>
<!-- &#45;2087662164817343960 -->
<g id="node5" class="node">
<title>&#45;2087662164817343960</title>
<ellipse fill="none" stroke="black" cx="436.11" cy="-44.03" rx="44.03" ry="44.03"/>
<text text-anchor="middle" x="436.11" y="-38.23" font-family="Helvetica,sans-Serif" font-size="14.00">read&#45;csv</text>
</g>
<!-- 7554879555402980785 -->
<g id="node6" class="node">
<title>7554879555402980785</title>
<polygon fill="none" stroke="black" points="463.11,-160.07 409.11,-160.07 409.11,-124.07 463.11,-124.07 463.11,-160.07"/>
<text text-anchor="middle" x="436.11" y="-136.27" font-family="Helvetica,sans-Serif" font-size="14.00">2</text>
</g>
<!-- &#45;2087662164817343960&#45;&gt;7554879555402980785 -->
<g id="edge3" class="edge">
<title>&#45;2087662164817343960&#45;&gt;7554879555402980785</title>
<path fill="none" stroke="black" d="M436.11,-88.55C436.11,-96.66 436.11,-104.95 436.11,-112.46"/>
<polygon fill="black" stroke="black" points="432.61,-112.36 436.11,-122.36 439.61,-112.36 432.61,-112.36"/>
</g>
<!-- 4771726805729859876 -->
<g id="node17" class="node">
<title>4771726805729859876</title>
<ellipse fill="none" stroke="black" cx="436.11" cy="-276.17" rx="80.11" ry="80.11"/>
<text text-anchor="middle" x="436.11" y="-270.37" font-family="Helvetica,sans-Serif" font-size="14.00">to_pyarrow_string</text>
</g>
<!-- 7554879555402980785&#45;&gt;4771726805729859876 -->
<g id="edge12" class="edge">
<title>7554879555402980785&#45;&gt;4771726805729859876</title>
<path fill="none" stroke="black" d="M436.11,-160.34C436.11,-167.1 436.11,-175.4 436.11,-184.42"/>
<polygon fill="black" stroke="black" points="432.61,-184.22 436.11,-194.22 439.61,-184.22 432.61,-184.22"/>
</g>
<!-- &#45;2891789069965917002 -->
<g id="node7" class="node">
<title>&#45;2891789069965917002</title>
<ellipse fill="none" stroke="black" cx="614.11" cy="-44.03" rx="44.03" ry="44.03"/>
<text text-anchor="middle" x="614.11" y="-38.23" font-family="Helvetica,sans-Serif" font-size="14.00">read&#45;csv</text>
</g>
<!-- &#45;4384223762204572406 -->
<g id="node8" class="node">
<title>&#45;4384223762204572406</title>
<polygon fill="none" stroke="black" points="641.11,-160.07 587.11,-160.07 587.11,-124.07 641.11,-124.07 641.11,-160.07"/>
<text text-anchor="middle" x="614.11" y="-136.27" font-family="Helvetica,sans-Serif" font-size="14.00">3</text>
</g>
<!-- &#45;2891789069965917002&#45;&gt;&#45;4384223762204572406 -->
<g id="edge4" class="edge">
<title>&#45;2891789069965917002&#45;&gt;&#45;4384223762204572406</title>
<path fill="none" stroke="black" d="M614.11,-88.55C614.11,-96.66 614.11,-104.95 614.11,-112.46"/>
<polygon fill="black" stroke="black" points="610.61,-112.36 614.11,-122.36 617.61,-112.36 610.61,-112.36"/>
</g>
<!-- &#45;1546848979820533515 -->
<g id="node19" class="node">
<title>&#45;1546848979820533515</title>
<ellipse fill="none" stroke="black" cx="614.11" cy="-276.17" rx="80.11" ry="80.11"/>
<text text-anchor="middle" x="614.11" y="-270.37" font-family="Helvetica,sans-Serif" font-size="14.00">to_pyarrow_string</text>
</g>
<!-- &#45;4384223762204572406&#45;&gt;&#45;1546848979820533515 -->
<g id="edge14" class="edge">
<title>&#45;4384223762204572406&#45;&gt;&#45;1546848979820533515</title>
<path fill="none" stroke="black" d="M614.11,-160.34C614.11,-167.1 614.11,-175.4 614.11,-184.42"/>
<polygon fill="black" stroke="black" points="610.61,-184.22 614.11,-194.22 617.61,-184.22 610.61,-184.22"/>
</g>
<!-- &#45;9210364855516310393 -->
<g id="node9" class="node">
<title>&#45;9210364855516310393</title>
<ellipse fill="none" stroke="black" cx="792.11" cy="-44.03" rx="44.03" ry="44.03"/>
<text text-anchor="middle" x="792.11" y="-38.23" font-family="Helvetica,sans-Serif" font-size="14.00">read&#45;csv</text>
</g>
<!-- 9169446282532282844 -->
<g id="node10" class="node">
<title>9169446282532282844</title>
<polygon fill="none" stroke="black" points="819.11,-160.07 765.11,-160.07 765.11,-124.07 819.11,-124.07 819.11,-160.07"/>
<text text-anchor="middle" x="792.11" y="-136.27" font-family="Helvetica,sans-Serif" font-size="14.00">4</text>
</g>
<!-- &#45;9210364855516310393&#45;&gt;9169446282532282844 -->
<g id="edge5" class="edge">
<title>&#45;9210364855516310393&#45;&gt;9169446282532282844</title>
<path fill="none" stroke="black" d="M792.11,-88.55C792.11,-96.66 792.11,-104.95 792.11,-112.46"/>
<polygon fill="black" stroke="black" points="788.61,-112.36 792.11,-122.36 795.61,-112.36 788.61,-112.36"/>
</g>
<!-- &#45;2350975884969106557 -->
<g id="node21" class="node">
<title>&#45;2350975884969106557</title>
<ellipse fill="none" stroke="black" cx="792.11" cy="-276.17" rx="80.11" ry="80.11"/>
<text text-anchor="middle" x="792.11" y="-270.37" font-family="Helvetica,sans-Serif" font-size="14.00">to_pyarrow_string</text>
</g>
<!-- 9169446282532282844&#45;&gt;&#45;2350975884969106557 -->
<g id="edge16" class="edge">
<title>9169446282532282844&#45;&gt;&#45;2350975884969106557</title>
<path fill="none" stroke="black" d="M792.11,-160.34C792.11,-167.1 792.11,-175.4 792.11,-184.42"/>
<polygon fill="black" stroke="black" points="788.61,-184.22 792.11,-194.22 795.61,-184.22 788.61,-184.22"/>
</g>
<!-- 3156093728333454930 -->
<g id="node11" class="node">
<title>3156093728333454930</title>
<ellipse fill="none" stroke="black" cx="970.11" cy="-44.03" rx="44.03" ry="44.03"/>
<text text-anchor="middle" x="970.11" y="-38.23" font-family="Helvetica,sans-Serif" font-size="14.00">read&#45;csv</text>
</g>
<!-- &#45;7168014418059638475 -->
<g id="node12" class="node">
<title>&#45;7168014418059638475</title>
<polygon fill="none" stroke="black" points="997.11,-160.07 943.11,-160.07 943.11,-124.07 997.11,-124.07 997.11,-160.07"/>
<text text-anchor="middle" x="970.11" y="-136.27" font-family="Helvetica,sans-Serif" font-size="14.00">5</text>
</g>
<!-- 3156093728333454930&#45;&gt;&#45;7168014418059638475 -->
<g id="edge6" class="edge">
<title>3156093728333454930&#45;&gt;&#45;7168014418059638475</title>
<path fill="none" stroke="black" d="M970.11,-88.55C970.11,-96.66 970.11,-104.95 970.11,-112.46"/>
<polygon fill="black" stroke="black" points="966.61,-112.36 970.11,-122.36 973.61,-112.36 966.61,-112.36"/>
</g>
<!-- &#45;3387815297241427200 -->
<g id="node23" class="node">
<title>&#45;3387815297241427200</title>
<ellipse fill="none" stroke="black" cx="970.11" cy="-276.17" rx="80.11" ry="80.11"/>
<text text-anchor="middle" x="970.11" y="-270.37" font-family="Helvetica,sans-Serif" font-size="14.00">to_pyarrow_string</text>
</g>
<!-- &#45;7168014418059638475&#45;&gt;&#45;3387815297241427200 -->
<g id="edge18" class="edge">
<title>&#45;7168014418059638475&#45;&gt;&#45;3387815297241427200</title>
<path fill="none" stroke="black" d="M970.11,-160.34C970.11,-167.1 970.11,-175.4 970.11,-184.42"/>
<polygon fill="black" stroke="black" points="966.61,-184.22 970.11,-194.22 973.61,-184.22 966.61,-184.22"/>
</g>
<!-- 6192286339682580702 -->
<g id="node14" class="node">
<title>6192286339682580702</title>
<polygon fill="none" stroke="black" points="107.11,-428.28 53.11,-428.28 53.11,-392.28 107.11,-392.28 107.11,-428.28"/>
<text text-anchor="middle" x="80.11" y="-404.48" font-family="Helvetica,sans-Serif" font-size="14.00">0</text>
</g>
<!-- 4316723616085736&#45;&gt;6192286339682580702 -->
<g id="edge7" class="edge">
<title>4316723616085736&#45;&gt;6192286339682580702</title>
<path fill="none" stroke="black" d="M80.11,-356.69C80.11,-365.23 80.11,-373.46 80.11,-380.77"/>
<polygon fill="black" stroke="black" points="76.61,-380.58 80.11,-390.58 83.61,-380.58 76.61,-380.58"/>
</g>
<!-- 1299212310709884336 -->
<g id="node16" class="node">
<title>1299212310709884336</title>
<polygon fill="none" stroke="black" points="285.11,-428.28 231.11,-428.28 231.11,-392.28 285.11,-392.28 285.11,-428.28"/>
<text text-anchor="middle" x="258.11" y="-404.48" font-family="Helvetica,sans-Serif" font-size="14.00">1</text>
</g>
<!-- 4243635896054978344&#45;&gt;1299212310709884336 -->
<g id="edge9" class="edge">
<title>4243635896054978344&#45;&gt;1299212310709884336</title>
<path fill="none" stroke="black" d="M258.11,-356.69C258.11,-365.23 258.11,-373.46 258.11,-380.77"/>
<polygon fill="black" stroke="black" points="254.61,-380.58 258.11,-390.58 261.61,-380.58 254.61,-380.58"/>
</g>
<!-- 7806853066811882761 -->
<g id="node18" class="node">
<title>7806853066811882761</title>
<polygon fill="none" stroke="black" points="463.11,-428.28 409.11,-428.28 409.11,-392.28 463.11,-392.28 463.11,-428.28"/>
<text text-anchor="middle" x="436.11" y="-404.48" font-family="Helvetica,sans-Serif" font-size="14.00">2</text>
</g>
<!-- 4771726805729859876&#45;&gt;7806853066811882761 -->
<g id="edge11" class="edge">
<title>4771726805729859876&#45;&gt;7806853066811882761</title>
<path fill="none" stroke="black" d="M436.11,-356.69C436.11,-365.23 436.11,-373.46 436.11,-380.77"/>
<polygon fill="black" stroke="black" points="432.61,-380.58 436.11,-390.58 439.61,-380.58 432.61,-380.58"/>
</g>
<!-- 2913779037839186395 -->
<g id="node20" class="node">
<title>2913779037839186395</title>
<polygon fill="none" stroke="black" points="641.11,-428.28 587.11,-428.28 587.11,-392.28 641.11,-392.28 641.11,-428.28"/>
<text text-anchor="middle" x="614.11" y="-404.48" font-family="Helvetica,sans-Serif" font-size="14.00">3</text>
</g>
<!-- &#45;1546848979820533515&#45;&gt;2913779037839186395 -->
<g id="edge13" class="edge">
<title>&#45;1546848979820533515&#45;&gt;2913779037839186395</title>
<path fill="none" stroke="black" d="M614.11,-356.69C614.11,-365.23 614.11,-373.46 614.11,-380.77"/>
<polygon fill="black" stroke="black" points="610.61,-380.58 614.11,-390.58 617.61,-380.58 610.61,-380.58"/>
</g>
<!-- &#45;9025324279768366796 -->
<g id="node22" class="node">
<title>&#45;9025324279768366796</title>
<polygon fill="none" stroke="black" points="819.11,-428.28 765.11,-428.28 765.11,-392.28 819.11,-392.28 819.11,-428.28"/>
<text text-anchor="middle" x="792.11" y="-404.48" font-family="Helvetica,sans-Serif" font-size="14.00">4</text>
</g>
<!-- &#45;2350975884969106557&#45;&gt;&#45;9025324279768366796 -->
<g id="edge15" class="edge">
<title>&#45;2350975884969106557&#45;&gt;&#45;9025324279768366796</title>
<path fill="none" stroke="black" d="M792.11,-356.69C792.11,-365.23 792.11,-373.46 792.11,-380.77"/>
<polygon fill="black" stroke="black" points="788.61,-380.58 792.11,-390.58 795.61,-380.58 788.61,-380.58"/>
</g>
<!-- 129988381984120326 -->
<g id="node24" class="node">
<title>129988381984120326</title>
<polygon fill="none" stroke="black" points="997.11,-428.28 943.11,-428.28 943.11,-392.28 997.11,-392.28 997.11,-428.28"/>
<text text-anchor="middle" x="970.11" y="-404.48" font-family="Helvetica,sans-Serif" font-size="14.00">5</text>
</g>
<!-- &#45;3387815297241427200&#45;&gt;129988381984120326 -->
<g id="edge17" class="edge">
<title>&#45;3387815297241427200&#45;&gt;129988381984120326</title>
<path fill="none" stroke="black" d="M970.11,-356.69C970.11,-365.23 970.11,-373.46 970.11,-380.77"/>
<polygon fill="black" stroke="black" points="966.61,-380.58 970.11,-390.58 973.61,-380.58 966.61,-380.58"/>
</g>
</g>
</svg>
